<?xml version="1.0" encoding="utf-8"?>
<!DOCTYPE svg PUBLIC "-//W3C//DTD SVG 1.1//EN" "http://www.w3.org/Graphics/SVG/1.1/DTD/svg11.dtd">
<svg version="1.1" id="Layer_1" xmlns="http://www.w3.org/2000/svg" xmlns:xlink="http://www.w3.org/1999/xlink" x="0px" y="0px"
	 viewBox="1706.3 560.5 1223.8 3419.3" enable-background="new 1706.3 560.5 1223.8 3419.3" xml:space="preserve">
<g>
	<g>
		<path d="M2663.5,565.2c146.2,0,255.5,94.2,255.5,240.3c0,54-13.2,100.7-38.2,134.3c-32.3,44.1-80.3,69.8-135.6,75.7V903.7
			c46.1-6.6,80.3-43.5,80.3-98.8c0-83.6-69.1-125.1-162-125.1c-93.5,0-161.3,48.7-161.3,125.8c0,59.9,38.9,96.8,89.6,102.1v112.6
			c-48.7-3.3-94.2-25.7-127.1-59.3c-36.2-36.9-55.3-86.9-55.3-155.4C2409.3,662.7,2517.3,565.2,2663.5,565.2z"/>
		<path d="M2595,1061.7c105.4,0,185.7,73.7,185.7,185.7c0,111.3-80.3,184.4-185.7,184.4c-104.7,0-185.7-73.1-185.7-184.4
			C2409.3,1135.4,2490.3,1061.7,2595,1061.7z M2595,1327c66.5,0,111.9-29,111.9-80.3c0-52.7-45.4-80.3-111.9-80.3
			c-65.8,0-110.6,27.7-110.6,80.3C2484.3,1298.1,2529.1,1327,2595,1327z"/>
		<path d="M2770.8,1483.8v99.4h-54.7v2c41.5,22.4,64.5,56,64.5,105.4c0,46.1-23,78.4-66.5,96.1v1.3c46.8,29,66.5,67.2,66.5,111.3
			c0,77.7-51.4,117.9-129.1,117.9h-231.1v-102.7h214c38.2,0,61.2-18.4,61.2-52c0-36.9-30.9-59.9-75.7-59.9h-199.5v-103.4h214
			c38.2,0,61.2-17.1,61.2-51.4c0-36.2-30.9-60.6-75.7-60.6h-199.5v-103.4H2770.8z"/>
		<path d="M2910.4,2082.3V2187h-90.2v-104.7H2910.4z M2770.8,2083v103.4h-350.3V2083H2770.8z"/>
		<path d="M2717.4,2354.9v2c42.1,21.7,63.2,59.3,63.2,108c0,77-51.4,121.8-129.7,121.8h-230.5V2484h210.7
			c38.2,0,63.9-20.4,63.9-58.6c0-40.2-32.3-67.2-77-67.2h-197.5v-103.4h350.3v100.1H2717.4z"/>
		<path d="M2408,2646.6v100.7c-21.1,6.6-35.6,26.3-35.6,66.5c0,48.7,25,73.1,67.8,73.1h7.2c17.8,0,34.2,0.7,46.1,2v-2.6
			c-34.2-20.4-51.4-51.4-51.4-94.8c0-81,59.9-152.8,165.9-152.8c102.1,0,172.5,61.2,172.5,147.5c0,47.4-15.8,81-54.7,100.7v1.3h44.8
			v98.8h-319.4c-52,0-89.6-17.1-114.6-45.4c-26.3-30.3-38.2-75.1-38.2-126.4C2298.7,2719,2338.8,2657.1,2408,2646.6z M2611.4,2890.2
			c52,0,90.9-25.7,90.9-76.4c0-45.4-35.6-73.7-91.5-73.7c-55.3,0-90.9,28.3-90.9,74.4C2519.9,2867.2,2559.4,2890.2,2611.4,2890.2z"
			/>
		<path d="M2420.5,3442.7h50v-2c-40.8-25.7-59.9-57.3-59.9-105.4c0-79.7,51.4-123.1,128.4-123.1h231.8v103.4h-212
			c-38.8,0-61.2,19.1-61.2,56c0,41.5,31.6,67.2,75.1,67.2h198.2v102.1h-350.3V3442.7z"/>
		<path d="M2770.8,3609.3v99.4h-50v2c40.2,23.7,59.9,58.6,59.9,106.7c0,92.8-77.7,150.8-185,150.8c-113.9,0-186.3-60.6-186.3-154.1
			c0-46.1,20.4-83,54.7-103.4v-1.3c-13.2,1.3-38.8,3.3-76.4,3.3h-83.6v-103.4H2770.8z M2592.3,3863.4c62.6,0,106-24.4,106-75.1
			c0-53.3-46.8-79-106-79c-59.9,0-102.7,27.7-102.7,80.3C2489.6,3836.4,2529.8,3863.4,2592.3,3863.4z"/>
		<path d="M2215,585.6v114.6l-212.7,129.1c-49.4,29-129.1,67.2-129.1,67.2v1.3c0,0,87.6-5.9,143.5-5.9H2215v107.3h-489.9V883.9
			l210.1-127.7c49.4-29.6,131-67.8,131-67.8V687c0,0-88.2,5.9-144.2,5.9h-196.9V585.6H2215z"/>
		<path d="M1899.6,1057.7c105.4,0,185.7,73.1,185.7,179.8c0,50-16.5,89.6-44.8,120.5c-38.2,39.5-97.5,57.3-166.6,56.6v-255.5
			c-52.7,6.6-84.3,34.9-84.3,84.9c0,32.3,12.5,52.7,34.2,63.9V1408c-61.9-17.8-109.3-75.1-109.3-165.3
			C1714.6,1128.2,1794.9,1057.7,1899.6,1057.7z M1933.9,1159.8v149.5c48.7-3.3,78.4-30.9,78.4-71.8
			C2012.2,1190.1,1981.9,1166.4,1933.9,1159.8z"/>
		<path d="M1908.9,1543.7l166.6-111.3v117.9l-32.9,20.4c-29,17.1-74.4,36.9-74.4,36.9v1.3c0,0,45.4,19.8,74.4,35.6l32.9,19.1v109.3
			l-164.6-107.3l-185.7,123.1v-119.8l44.8-27c29.6-16.5,77.7-38.2,77.7-38.2v-1.3c0,0-48.1-22.4-77.7-40.8l-44.8-28.3v-112.6
			L1908.9,1543.7z"/>
		<path d="M2075.4,1803.8v52.7h111.9v101.4h-111.9v68.5h-65.8v-68.5h-173.8c-26.3,0-33.6,14.5-33.6,38.8c0,6.6,0.7,17.1,1.3,23.7
			v5.3h-77c-2-11.2-5.3-32.3-5.3-59.9c0-65.2,21.1-109.3,92.2-109.3h196.2v-52.7H2075.4z"/>
	</g>
</g>
</svg>
